<?xml version="1.0" standalone="no"?>
<!DOCTYPE svg PUBLIC "-//W3C//DTD SVG 20010904//EN"
 "http://www.w3.org/TR/2001/REC-SVG-20010904/DTD/svg10.dtd">
<svg version="1.0" xmlns="http://www.w3.org/2000/svg"
 width="394.000000pt" height="394.000000pt" viewBox="0 0 394.000000 394.000000"
 preserveAspectRatio="xMidYMid meet">
<metadata>
Created by potrace 1.14, written by Peter Selinger 2001-2017
</metadata>
<g transform="translate(0.000000,394.000000) scale(0.100000,-0.100000)"
fill="#000000" stroke="none">
<path d="M2103 3773 c-4 -10 -20 -29 -37 -43 -17 -14 -41 -37 -55 -52 -13 -16
-28 -28 -32 -28 -4 0 -9 24 -11 53 -3 45 -6 52 -25 55 -14 2 -27 -5 -37 -20
-9 -13 -29 -34 -44 -45 l-29 -21 4 21 c5 24 -21 66 -33 54 -4 -4 0 -13 10 -20
14 -11 15 -17 6 -42 -12 -31 -63 -84 -119 -124 -40 -28 -52 -18 -49 41 2 33
-7 59 -15 47 -23 -34 -57 -90 -57 -97 0 -4 -14 -30 -31 -57 -17 -27 -28 -56
-26 -67 3 -10 1 -18 -4 -18 -5 0 -9 5 -9 11 0 9 -4 8 -14 0 -11 -9 -14 0 -19
49 -8 73 -31 123 -55 118 -9 -3 -15 -11 -13 -19 2 -8 6 -22 8 -31 4 -13 0 -18
-16 -18 -19 0 -21 -5 -20 -42 1 -24 -7 -82 -18 -130 -11 -48 -18 -90 -15 -93
3 -3 7 -36 8 -74 l3 -69 -34 14 c-35 14 -75 19 -75 8 0 -3 5 -14 10 -24 16
-29 32 -120 31 -167 -1 -24 5 -63 14 -88 15 -46 21 -134 8 -121 -4 4 -8 13 -8
19 0 26 -19 20 -27 -8 -19 -66 12 -137 68 -157 19 -6 34 -16 34 -21 0 -11 128
-138 155 -153 19 -11 19 -12 -6 -24 -39 -18 -51 -52 -43 -121 4 -32 3 -66 -2
-76 -4 -10 -8 -26 -8 -36 -1 -19 -30 -39 -79 -57 -29 -10 -67 -80 -67 -125 0
-13 -9 -47 -19 -77 -33 -91 -50 -160 -55 -233 -3 -42 -13 -87 -26 -113 -20
-42 -21 -45 -5 -79 9 -19 13 -38 8 -42 -4 -4 -35 -27 -68 -52 -121 -90 -132
-108 -115 -192 7 -34 16 -66 20 -72 4 -5 13 -36 20 -68 6 -32 18 -70 26 -85
35 -67 2 -82 -58 -27 -28 26 -38 43 -38 65 0 17 -6 31 -12 32 -7 0 -17 2 -23
3 -5 1 -32 23 -60 48 -41 39 -56 47 -87 47 -31 0 -38 -4 -38 -20 0 -18 -1 -18
-29 -2 -18 10 -26 21 -21 27 17 21 20 61 29 443 1 13 7 22 16 22 20 0 19 19
-2 42 -10 12 -18 42 -21 78 -4 50 -2 60 12 60 9 0 16 -5 16 -11 0 -5 4 -8 10
-4 6 4 6 15 0 31 -13 33 -13 81 0 89 6 4 8 11 5 16 -4 5 10 9 29 9 35 0 49 14
24 23 -7 2 -9 8 -5 13 4 4 17 3 27 -4 11 -7 23 -12 27 -12 5 0 1 4 -7 10 -11
7 -9 11 13 19 43 17 37 38 -25 84 -46 34 -50 69 -14 98 37 29 49 79 44 188 -4
92 -6 100 -55 196 -61 120 -143 216 -167 196 -8 -7 -18 -34 -21 -59 -4 -26
-13 -72 -20 -102 -8 -30 -17 -82 -21 -115 -11 -95 -17 -106 -55 -95 -27 8 -37
5 -75 -22 -33 -23 -43 -36 -38 -50 3 -12 0 -18 -10 -18 -22 0 -23 6 -31 100
-3 47 -12 110 -19 140 -8 30 -22 91 -32 135 -10 44 -21 84 -25 89 -16 18 -56
-5 -90 -51 -89 -123 -123 -217 -135 -373 -8 -107 12 -184 60 -232 28 -28 28
-29 7 -35 -29 -7 -29 -58 -1 -73 11 -6 18 -15 15 -21 -4 -5 5 -9 18 -9 13 0
32 -9 42 -20 12 -14 22 -17 30 -10 38 31 29 -62 -13 -137 -19 -35 -13 -50 9
-23 18 22 20 22 16 5 -3 -11 -8 -29 -13 -40 -7 -18 -6 -19 9 -6 20 16 23 14
32 -19 4 -18 -1 -36 -19 -63 -15 -21 -26 -42 -26 -48 0 -5 -7 -9 -17 -7 -22 4
-34 -44 -27 -107 7 -57 27 -95 50 -95 10 0 14 -7 12 -17 -2 -10 -10 -17 -17
-15 -8 1 -10 -2 -5 -10 5 -7 9 -20 11 -28 1 -8 7 -16 12 -18 6 -2 11 -16 11
-30 l1 -27 14 30 c13 29 13 29 14 -32 1 -44 -3 -63 -11 -63 -9 0 -9 -3 1 -9
18 -12 6 -45 -14 -37 -9 3 -15 0 -15 -9 0 -20 -77 -139 -81 -126 -6 18 -79
-48 -79 -71 0 -11 -16 -46 -35 -78 -37 -62 -42 -76 -24 -82 14 -5 -3 -37 -38
-77 -13 -14 -23 -31 -23 -37 0 -7 -7 -15 -16 -18 -12 -5 -15 -14 -11 -36 4
-16 2 -32 -3 -35 -6 -3 -10 -51 -10 -105 0 -82 4 -107 22 -145 15 -31 28 -45
42 -45 33 -1 56 -23 49 -49 l-6 -22 -19 21 c-33 35 -77 21 -69 -24 1 -10 -3
-22 -11 -27 -10 -6 -9 -11 7 -23 18 -14 18 -15 3 -16 -13 0 -18 -8 -18 -31 0
-17 4 -28 10 -24 5 3 20 -1 32 -9 22 -16 22 -16 -10 -16 -17 0 -32 -4 -32 -10
0 -5 24 -10 53 -10 28 0 47 4 42 8 -17 11 -12 46 8 50 22 4 33 -24 17 -43 -11
-13 -1 -15 74 -15 l86 0 0 30 c0 23 4 30 20 30 16 0 20 -7 20 -30 l0 -30 1810
0 1810 0 0 304 c0 261 -2 305 -15 310 -8 3 -21 3 -29 0 -8 -3 -20 8 -30 30 -9
20 -21 36 -26 36 -6 0 -10 9 -10 20 0 21 -15 27 -25 10 -4 -6 -1 -17 5 -25 7
-8 9 -26 6 -39 -4 -18 -11 -23 -26 -19 -14 4 -20 0 -20 -11 0 -10 -5 -14 -10
-11 -14 9 -8 94 6 88 8 -3 12 14 13 51 0 49 -2 56 -20 56 -17 0 -19 -7 -19
-52 -1 -29 -2 -78 -3 -108 -2 -47 4 -67 41 -141 23 -48 42 -89 42 -93 0 -3
-11 1 -25 10 -23 15 -25 15 -25 -1 0 -27 -24 -12 -43 28 -9 20 -21 37 -26 37
-5 0 -14 12 -21 28 -23 54 -35 72 -47 68 -7 -3 -10 1 -6 10 3 7 0 14 -5 14 -6
0 -12 8 -15 17 -2 10 -2 -24 1 -74 3 -74 1 -96 -11 -108 -9 -8 -20 -15 -25
-15 -6 0 -7 -36 -4 -90 3 -57 1 -90 -5 -90 -6 0 -20 30 -33 68 -12 37 -38 99
-56 138 -19 39 -34 76 -34 83 0 6 -4 11 -10 11 -14 0 -13 -11 6 -55 8 -20 14
-38 12 -39 -2 -1 -11 -8 -20 -15 -16 -12 -20 -9 -34 25 -20 48 -33 65 -45 58
-5 -3 0 -17 11 -31 11 -14 20 -36 20 -48 0 -12 7 -28 15 -35 17 -14 20 -40 5
-40 -6 0 -16 11 -22 25 -6 14 -14 25 -18 25 -4 0 -13 14 -20 30 -14 34 -35 41
-27 9 7 -27 -14 -20 -30 11 -6 13 -28 38 -49 57 -32 28 -37 37 -27 52 6 10 8
24 3 31 -6 10 -9 6 -12 -11 -4 -23 -5 -23 -13 -4 -4 11 -17 40 -28 65 -18 39
-21 42 -25 21 -2 -13 1 -28 7 -34 16 -16 13 -47 -4 -47 -17 0 -20 -36 -5 -74
12 -32 -2 -42 -21 -14 -8 12 -22 30 -32 40 -10 10 -20 32 -23 48 -4 16 -11 27
-18 24 -20 -8 -58 36 -52 60 3 11 6 25 6 30 0 15 55 -5 83 -32 32 -31 36 -14
6 34 -12 20 -29 34 -40 34 -11 0 -35 11 -52 24 -29 22 -37 23 -87 15 -53 -9
-56 -8 -77 18 -13 16 -22 32 -22 38 6 54 -14 74 -31 30 -12 -33 -36 -32 -93 5
-26 17 -50 30 -52 30 -13 0 -3 -29 15 -45 10 -9 24 -34 31 -54 6 -20 19 -50
29 -67 9 -17 19 -50 22 -75 3 -24 3 -37 1 -28 -2 10 -11 15 -21 13 -10 -3 -36
13 -66 40 -55 51 -118 71 -218 70 -38 -1 -59 3 -62 12 -3 7 -6 55 -7 106 -1
78 2 101 21 140 19 41 21 57 15 110 -7 60 -44 152 -91 229 -16 25 -34 39 -64
48 -39 11 -42 15 -36 39 20 89 27 178 27 339 -1 115 3 184 10 188 18 12 179
-72 247 -130 37 -31 94 -120 142 -220 23 -49 59 -112 81 -140 21 -27 47 -62
59 -77 28 -36 151 -116 223 -144 81 -32 147 -37 327 -25 182 12 325 33 360 53
65 36 114 72 153 114 23 26 59 62 80 82 35 33 37 39 37 94 l0 58 -27 -6 c-16
-3 -44 -10 -63 -15 -19 -5 -100 -14 -180 -20 -123 -8 -159 -7 -239 7 l-94 17
38 23 c21 12 54 25 74 29 36 6 73 22 188 78 78 38 171 128 234 227 27 41 53
80 59 87 5 7 10 38 10 70 -1 55 -1 57 -15 33 -8 -14 -15 -32 -15 -40 -3 -41
-196 -143 -323 -171 -153 -34 -225 -41 -382 -36 -316 11 -454 68 -596 247 -98
124 -155 168 -227 177 -20 2 -55 10 -77 18 -27 10 -92 16 -202 17 -90 2 -162
7 -160 12 2 4 23 20 49 35 56 32 87 69 139 166 12 22 30 45 39 52 10 7 23 33
29 57 6 25 23 57 37 71 14 15 24 29 20 32 -3 3 -14 -5 -25 -18 -16 -19 -22
-21 -32 -12 -10 10 -7 29 14 92 20 58 26 90 21 119 -5 35 -3 41 26 66 18 15
30 29 28 32 -3 3 -19 -7 -36 -21 -16 -14 -32 -25 -34 -25 -3 0 -6 22 -7 49 -1
42 2 52 24 69 14 11 25 24 25 29 0 17 38 45 50 38 7 -5 7 0 -1 13 -7 12 -21
23 -31 25 -31 8 -21 47 21 86 34 31 37 39 26 54 -6 9 -17 17 -24 17 -6 0 -11
4 -11 9 0 5 -13 12 -30 16 -34 7 -35 12 -15 39 22 29 19 56 -5 56 -13 0 -20 7
-20 20 0 24 -19 26 -46 5 -23 -17 -66 -19 -81 -4 -9 9 -6 20 11 43 13 17 26
44 30 60 4 15 14 35 21 43 8 8 14 26 14 41 l-1 27 -7 -29 c-10 -49 -31 -44
-31 8 0 46 -15 61 -27 29z m-647 -334 c-5 -52 -26 -77 -26 -32 0 18 -4 35 -10
38 -12 7 9 34 27 35 9 0 11 -13 9 -41z m790 -186 c-10 -10 -19 5 -10 18 6 11
8 11 12 0 2 -7 1 -15 -2 -18z m-872 -612 c-9 -10 -24 23 -23 54 0 29 1 29 15
-9 8 -22 12 -42 8 -45z m26 -57 c0 -8 -4 -12 -10 -9 -5 3 -10 13 -10 21 0 8 5
12 10 9 6 -3 10 -13 10 -21z m120 -54 c0 -5 -4 -10 -10 -10 -5 0 -10 5 -10 10
0 6 5 10 10 10 6 0 10 -4 10 -10z m-1272 -555 c0 -16 -2 -15 -8 5 -11 34 -11
60 0 35 5 -11 8 -29 8 -40z m3572 17 c0 -11 -29 -37 -50 -46 -8 -3 -2 -4 13
-1 21 4 28 2 25 -7 -3 -7 -22 -14 -44 -16 -23 -2 -49 -13 -64 -26 -14 -13 -37
-26 -52 -30 -16 -3 -28 -13 -28 -21 0 -9 -9 -15 -24 -15 -13 0 -39 -3 -57 -7
l-34 -6 17 25 c12 17 13 29 6 36 -15 15 26 25 67 18 22 -5 36 -2 42 6 8 12
160 97 176 98 4 0 7 -4 7 -8z m-3457 -72 c-3 -11 -9 -17 -14 -15 -10 7 -1 35
11 35 5 0 6 -9 3 -20z m3367 -70 c0 -5 -8 -10 -17 -10 -15 0 -16 2 -3 10 19
12 20 12 20 0z m-3383 -52 c-3 -7 -5 -2 -5 12 0 14 2 19 5 13 2 -7 2 -19 0
-25z m3143 -15 c0 -12 -8 -14 -37 -8 -43 8 -47 10 -40 22 10 15 77 2 77 -14z
m-81 -49 c10 -9 -7 -11 -49 -6 -34 4 -40 7 -25 12 18 7 63 3 74 -6z m-3083
-189 c-7 -18 15 -20 32 -3 7 7 12 9 12 5 0 -11 -59 -67 -70 -67 -7 0 -10 3 -8
8 3 4 10 22 17 40 7 17 15 32 18 32 3 0 3 -7 -1 -15z m3401 -1 c-3 -3 -12 -4
-19 -1 -8 3 -5 6 6 6 11 1 17 -2 13 -5z m123 -38 c0 -10 -92 -96 -102 -96 -5
0 -8 -7 -8 -15 0 -8 -12 -18 -27 -21 -16 -4 -58 -22 -94 -40 -76 -39 -129 -53
-129 -34 0 8 -9 10 -28 5 -23 -5 -31 -1 -41 18 -10 19 -10 29 -2 46 7 12 9 26
6 32 -14 22 17 40 57 34 37 -7 54 7 23 19 -21 8 -19 32 4 48 21 15 341 19 341
4z m-2666 -218 c-12 -17 -44 -19 -44 -2 0 17 32 35 44 24 4 -4 4 -14 0 -22z
m46 -64 c0 -8 -5 -12 -10 -9 -6 4 -8 11 -5 16 9 14 15 11 15 -7z m-585 -74 c3
-5 -1 -10 -9 -10 -9 0 -16 5 -16 10 0 6 4 10 9 10 6 0 13 -4 16 -10z m590 -65
c8 -65 8 -82 -2 -130 -7 -32 -9 -17 -11 74 -2 121 2 137 13 56z m123 -106 c-7
-5 -17 -9 -23 -9 -5 1 -2 5 8 11 9 5 18 18 18 27 1 14 2 14 6 -2 3 -10 -1 -22
-9 -27z m-1104 -71 c-10 -13 -24 -27 -30 -33 -6 -5 -23 -28 -38 -50 -14 -22
-26 -35 -26 -30 0 6 9 21 20 35 11 14 20 29 20 34 0 13 51 66 63 66 6 0 2 -10
-9 -22z m2036 -193 c0 -16 -6 -25 -15 -25 -16 0 -19 9 -9 34 9 25 24 19 24 -9z
m637 10 c9 -26 -4 -28 -26 -6 -21 21 -21 21 -1 21 11 0 23 -7 27 -15z m-502
-15 c18 -8 17 -9 -7 -9 -16 -1 -28 4 -28 9 0 12 8 12 35 0z m54 -29 c-15 -5
-22 6 -14 19 6 9 10 9 16 -1 5 -8 4 -15 -2 -18z m46 -21 c3 -5 -1 -10 -9 -10
-9 0 -16 5 -16 10 0 6 4 10 9 10 6 0 13 -4 16 -10z m645 -116 c0 -8 -4 -12
-10 -9 -5 3 -10 13 -10 21 0 8 5 12 10 9 6 -3 10 -13 10 -21z m480 -8 c0 -8
-4 -18 -10 -21 -5 -3 -10 3 -10 14 0 12 5 21 10 21 6 0 10 -6 10 -14z m-475
-26 c3 -5 1 -10 -4 -10 -6 0 -11 5 -11 10 0 6 2 10 4 10 3 0 8 -4 11 -10z
m493 -32 c15 -15 16 -41 0 -36 -13 5 -31 48 -20 48 5 0 13 -5 20 -12z m-1658
-58 c0 -5 -4 -10 -10 -10 -5 0 -10 5 -10 10 0 6 5 10 10 10 6 0 10 -4 10 -10z
m1613 -6 c-3 -8 3 -25 13 -37 31 -37 43 -63 34 -77 -21 -34 -79 66 -65 110 3
11 10 20 15 20 5 0 7 -7 3 -16z m117 -36 c22 -24 26 -38 10 -38 -5 0 -10 -7
-10 -15 0 -8 -4 -15 -10 -15 -5 0 -10 9 -10 19 0 11 -4 23 -10 26 -13 8 -13
45 0 45 5 0 18 -10 30 -22z m-3540 2 c0 -5 -4 -10 -10 -10 -5 0 -10 5 -10 10
0 6 5 10 10 10 6 0 10 -4 10 -10z m3240 -10 c0 -5 -2 -10 -4 -10 -3 0 -8 5
-11 10 -3 6 -1 10 4 10 6 0 11 -4 11 -10z m-3303 -102 c-3 -8 -6 -5 -6 6 -1
11 2 17 5 13 3 -3 4 -12 1 -19z m3548 -8 c3 -5 1 -10 -4 -10 -6 0 -11 5 -11
10 0 6 2 10 4 10 3 0 8 -4 11 -10z m-3525 -75 c0 6 5 2 11 -8 6 -9 14 -15 20
-12 5 4 9 0 9 -9 0 -8 4 -16 9 -18 16 -6 50 -88 39 -94 -6 -4 -15 1 -20 11 -8
14 -12 15 -19 4 -11 -19 -16 -11 -32 52 -8 29 -19 54 -25 54 -16 0 -25 13 -17
25 6 9 10 9 16 -1 5 -8 9 -9 9 -4z m427 -65 c41 -20 64 -50 38 -50 -8 0 -18 6
-22 14 -4 7 -23 21 -40 30 -32 16 -41 26 -25 26 5 0 27 -9 49 -20z m-527 -40
c0 -5 -2 -10 -4 -10 -3 0 -8 5 -11 10 -3 6 -1 10 4 10 6 0 11 -4 11 -10z"/>
<path d="M3455 1380 c3 -5 13 -10 21 -10 8 0 14 5 14 10 0 6 -9 10 -21 10 -11
0 -17 -4 -14 -10z"/>
<path d="M1536 3610 c-2 -8 -7 -28 -10 -45 -3 -16 -8 -41 -12 -55 -6 -23 -6
-24 11 -8 20 19 36 90 24 110 -6 10 -9 9 -13 -2z"/>
<path d="M1330 3350 c0 -5 5 -10 11 -10 5 0 7 5 4 10 -3 6 -8 10 -11 10 -2 0
-4 -4 -4 -10z"/>
<path d="M1225 3209 c14 -46 25 -56 23 -20 -2 19 -9 36 -17 39 -10 3 -11 -2
-6 -19z"/>
<path d="M1241 3094 c0 -11 3 -14 6 -6 3 7 2 16 -1 19 -3 4 -6 -2 -5 -13z"/>
<path d="M3745 1261 c-3 -5 -1 -12 4 -15 5 -3 11 1 15 9 6 16 -9 21 -19 6z"/>
<path d="M3597 1098 c-7 -45 5 -54 45 -35 l33 16 13 -39 c12 -34 37 -58 50
-46 8 9 -22 111 -37 124 -8 6 -34 12 -57 12 -39 0 -42 -2 -47 -32z"/>
<path d="M30 1106 c0 -17 27 -29 35 -16 4 6 3 15 0 20 -9 15 -35 12 -35 -4z"/>
<path d="M3400 1087 c0 -34 35 -64 55 -47 18 15 14 22 -25 50 l-30 21 0 -24z"/>
<path d="M3816 1073 c9 -38 13 -43 30 -43 17 0 18 9 4 44 -14 37 -43 35 -34
-1z"/>
<path d="M3627 1010 c3 -11 7 -20 9 -20 2 0 4 9 4 20 0 11 -4 20 -9 20 -5 0
-7 -9 -4 -20z"/>
<path d="M3340 788 c0 -7 11 -26 25 -43 l24 -30 1 27 c0 26 -22 58 -41 58 -5
0 -9 -6 -9 -12z"/>
<path d="M3436 763 c-3 -10 -6 -37 -8 -60 -2 -34 3 -47 20 -64 13 -12 22 -30
21 -42 -3 -23 55 -96 67 -85 10 11 5 151 -6 162 -7 7 -10 6 -10 -1 0 -6 -9 -9
-20 -6 -11 3 -20 13 -20 23 0 19 -27 90 -34 90 -3 0 -7 -8 -10 -17z"/>
<path d="M3897 766 c-6 -16 11 -36 30 -36 19 0 16 37 -3 44 -21 8 -21 8 -27
-8z"/>
<path d="M3637 676 c-5 -13 6 -46 32 -95 9 -17 38 -37 44 -31 3 3 2 25 -2 50
-10 66 -59 115 -74 76z m41 -29 c4 -21 -24 -13 -32 9 -4 11 -1 14 11 12 10 -2
19 -11 21 -21z"/>
<path d="M3310 626 c0 -7 7 -19 15 -26 8 -7 15 -19 15 -26 0 -8 9 -14 21 -14
16 0 19 4 13 23 -13 44 -64 79 -64 43z"/>
<path d="M3560 631 c0 -6 5 -13 10 -16 6 -3 10 1 10 9 0 9 -4 16 -10 16 -5 0
-10 -4 -10 -9z"/>
<path d="M3279 513 c6 -12 16 -25 21 -28 17 -11 11 5 -11 28 l-21 22 11 -22z"/>
<path d="M3550 459 c0 -5 5 -7 10 -4 6 3 10 8 10 11 0 2 -4 4 -10 4 -5 0 -10
-5 -10 -11z"/>
<path d="M3746 455 c-3 -9 0 -15 9 -15 8 0 15 7 15 15 0 8 -4 15 -9 15 -5 0
-11 -7 -15 -15z"/>
</g>
</svg>
